<svg width="100%" height="100%" viewBox="0 0 32 32" version="1.1" xmlns="http://www.w3.org/2000/svg" xmlns:xlink="http://www.w3.org/1999/xlink" xml:space="preserve" xmlns:serif="http://www.serif.com/" style="fill-rule:evenodd;clip-rule:evenodd;stroke-linejoin:round;stroke-miterlimit:1.41421;">
<g transform="matrix(0.707107,0.707107,-0.707107,0.707107,21.1165,-3.19522)">
<path d="M9.319,29.35L7.968,28.5L7.968,15.68C5.459,14.847 3.646,12.479 3.646,9.691C3.646,6.209 6.473,3.382 9.955,3.382C13.437,3.382 16.264,6.209 16.264,9.691C16.264,12.479 14.452,14.847 11.942,15.68L11.942,31L9.955,29.75L9.955,16L9.319,16L9.319,29.35ZM11.942,24L14.462,25.75L11.942,27.5L14.462,29.25L11.942,31L11.942,24ZM14.462,22.25L11.942,24L11.942,20.5L14.462,22.25ZM9.955,6.551C11.688,6.551 13.095,7.958 13.095,9.691C13.095,11.424 11.688,12.831 9.955,12.831C8.222,12.831 6.816,11.424 6.816,9.691C6.816,7.958 8.222,6.551 9.955,6.551Z" style="#000"/>
</g>
</svg>