<?xml version="1.0" encoding="utf-8"?>
<!-- Generator: Adobe Illustrator 19.0.1, SVG Export Plug-In . SVG Version: 6.00 Build 0)  -->
<svg version="1.1" id="michno" xmlns="http://www.w3.org/2000/svg" xmlns:xlink="http://www.w3.org/1999/xlink" x="0px" y="0px"
	 viewBox="0 0 576 576" style="enable-background:new 0 0 576 576;" xml:space="preserve">
<style type="text/css">
	.st0{fill:#FFFFFF;}
</style>
<g>
	<path class="st0" d="M70.4,454.2c5,24.6,42.4,117.3,42.4,117.3s53.7-40.4,289.3-67.5c0.4,0,0.8-0.3,1-0.7
		c3.1-5.7,52.6-64.2,52.6-64.2c2.2-0.5-320.7,73.7-321.6,72.8C127.4,505.3,69.6,450.3,70.4,454.2z"/>
	<path class="st0" d="M3.1,355.8c-5.3-18,116.9-143.7,219.3-177.3L228.8,11c0,0,241.2,16.5,344.3,113.1c0,0,1.8,65.2-10.1,127.5
		c-15.4,80.4-30.3,113.8-47.1,115.8c0,0-127.1-33.9-138.6-42.5c-2.3-1.7,96.4-9.5,103.5-10.5c3-0.4,58-156.7,18.6-178.2
		C469.1,119.8,353.8,66.7,280,68.9L232,314.3l-9.2-86c0,0-130.3,72.4-161.8,134.7l60.2,109.1C118.3,472.6,12.2,386.6,3.1,355.8z"/>
</g>
</svg>
