<?xml version="1.0" encoding="utf-8"?>
<!-- Generator: Adobe Illustrator 22.0.1, SVG Export Plug-In . SVG Version: 6.00 Build 0)  -->
<svg version="1.1" id="Warstwa_1" xmlns="http://www.w3.org/2000/svg" xmlns:xlink="http://www.w3.org/1999/xlink" x="0px" y="0px"
	 viewBox="0 0 32 32" style="enable-background:new 0 0 32 32;" xml:space="preserve">
<path d="M28.4,9.3c1.3-0.9,2.3-2,3.2-3.3c-1.2,0.5-2.4,0.9-3.7,1c1.4-0.8,2.3-2,2.8-3.5c-1.3,0.7-2.6,1.2-4.1,1.5
	c-0.6-0.6-1.3-1.1-2.1-1.4C23.8,3.2,22.9,3,22,3c-1.1,0-2.2,0.3-3.2,0.8s-1.7,1.3-2.3,2.3c-0.6,1-0.9,2-0.9,3.2c0,0.5,0,1,0.1,1.4
	c-2.6-0.1-5.1-0.8-7.4-1.9C6.1,7.7,4.2,6.1,2.6,4.2C2,5.2,1.7,6.2,1.7,7.3s0.3,2.1,0.8,3C3,11.3,3.7,12,4.5,12.6c-1,0-2-0.3-2.9-0.8
	v0.1c0,1.5,0.5,2.8,1.5,4c1,1.2,2.2,1.9,3.7,2.2c-0.6,0.1-1.1,0.2-1.7,0.2c-0.4,0-0.8,0-1.2-0.1c0.4,1.2,1.1,2.3,2.2,3.1
	s2.3,1.2,3.8,1.2c-2.4,1.8-5,2.7-8,2.7c-0.6,0-1.1,0-1.5-0.1c3,1.9,6.2,2.8,9.8,2.8c3.7,0,7.1-0.9,9.9-2.8c2.6-1.7,4.7-3.9,6.2-6.8
	c1.4-2.7,2.1-5.5,2.1-8.3C28.4,9.7,28.4,9.4,28.4,9.3z"/>
</svg>
